#N struct 1077-tplate float x0 float y0 float id float label float
c;
#N canvas 875 173 1093 978 12;
#N canvas 604 487 748 715 \$0-template 0;
#X obj 54 213 inlet;
#X obj 54 237 t l b;
#X obj 234 340 f \$0;
#X msg 234 364 traverse pd-\$1-pad \, bang;
#X obj 234 388 pointer;
#X obj 273 97 filledpolygon c 0 3 x0(0:244)(0:244) y0(0:244)(0:244)
x0(0:244)(16:260) y0(0:244)(0:244) x0(0:244)(16:260) y0(0:244)(16:260)
x0(0:244)(0:244) y0(0:244)(16:260);
#X obj 111 22 struct \$0-tplate float x0 float y0 float id float label
float c;
#X obj 107 72 route change;
#X obj 235 203 drawsymbol label x0 y0 999;
#X obj 56 449 append \$0-tplate x0 y0 id label c;
#X msg 56 425 122 122 \$1 \$1 \$2;
#X obj 107 96 t p p, f 16;
#X obj 100 136 get \$0-tplate id;
#X obj 105 177 set \$0-tplate label;
#X connect 0 0 1 0;
#X connect 1 0 10 0;
#X connect 1 1 2 0;
#X connect 2 0 3 0;
#X connect 3 0 4 0;
#X connect 4 0 9 5;
#X connect 6 0 7 0;
#X connect 7 0 11 0;
#X connect 10 0 9 0;
#X connect 11 0 12 0;
#X connect 11 1 13 1;
#X connect 12 0 13 0;
#X restore 134 842 pd \$0-template;
#X obj 393 165 inlet;
#X obj 87 353 r \$0-clear;
#X obj 87 377 f \$0;
#X msg 87 401 \; pd-\$1-pad clear;
#X obj 298 442 r \$0-clear;
#X obj 128 633 f;
#X obj 222 599 + 1;
#X obj 132 679 t f f f;
#X obj 130 799 pack f f;
#X obj 62 477 r \$0-add;
#X msg 295 491 0;
#X obj 295 515 t f f;
#X obj 389 359 outlet;
#X obj 538 319 s \$0-add;
#X obj 607 371 s \$0-clear;
#X obj 214 55 bng 15 250 50 0 \$0-add empty add 17 7 0 14 -262144 -1
-1;
#X obj 260 55 bng 15 250 50 0 \$0-clear empty clear 17 7 0 14 -262144
-1 -1;
#X obj 55 73 cnv 15 260 260 empty empty empty 20 12 0 14 -261936 -66577
0;
#N canvas 1116 326 834 608 \$0-pad 0;
#X scalar 1077-tplate 147 74 1 1 27 \;;
#X scalar 1077-tplate 122 122 0 0 0 \;;
#X coords 0 0 260 260 260 260 2 0 0;
#X restore 55 73 pd \$0-pad;
#X obj 220 673 s \$0-num;
#X text 916 35 derek kwan;
#X text 919 75 gpl v 3 2018;
#N canvas 1193 398 976 881 \$0-getter 0;
#X obj 84 14 inlet;
#X obj 240 288 f \$0;
#X msg 240 312 traverse pd-\$1-pad;
#X obj 242 405 pointer;
#X obj 123 604 ==;
#X obj 46 302 + 1;
#X obj 35 600 t b f;
#X msg 33 644 next;
#X obj 190 38 r \$0-num;
#X obj 46 326 t f f;
#X obj 106 359 > 0;
#X obj 44 377 spigot;
#X obj 44 401 t f b;
#X msg 91 464 0;
#X obj 38 489 f;
#X obj 44 425 until;
#X obj 38 513 t f f;
#X obj 107 512 + 1;
#X obj 244 698 outlet;
#X obj 392 525 t b f;
#X obj 392 573 -;
#X obj 320 520 / 244;
#X obj 388 610 / 244;
#X msg 392 549 244;
#X obj 265 458 spigot 0;
#X obj 163 301 -;
#X obj 163 325 abs;
#X obj 243 91 - 1;
#X obj 116 736 || 0, f 12;
#X obj 257 169 f;
#X text 142 16 query id;
#X obj 455 23 inlet;
#X text 524 30 dump all;
#X obj 84 38 t f b, f 12;
#X msg 189 676 0;
#X obj 455 47 t b b;
#X msg 496 116 1;
#X obj 190 65 t f f, f 8;
#X obj 242 119 t f f;
#X text 92 570 check equality of id;
#X text 99 775 1 to dump all;
#X obj 114 229 t f f b, f 18;
#X obj 243 485 get \$0-tplate id x0 y0;
#X obj 247 656 pack f f f;
#X obj 84 105 moses, f 13;
#X connect 0 0 33 0;
#X connect 1 0 2 0;
#X connect 2 0 3 0;
#X connect 3 0 24 0;
#X connect 4 0 28 0;
#X connect 5 0 9 0;
#X connect 6 0 7 0;
#X connect 6 1 4 0;
#X connect 7 0 3 0;
#X connect 8 0 37 0;
#X connect 9 0 11 0;
#X connect 9 1 10 0;
#X connect 10 0 11 1;
#X connect 11 0 12 0;
#X connect 12 0 15 0;
#X connect 12 1 13 0;
#X connect 13 0 14 1;
#X connect 14 0 16 0;
#X connect 15 0 14 0;
#X connect 16 0 6 0;
#X connect 16 1 17 0;
#X connect 17 0 14 1;
#X connect 19 0 23 0;
#X connect 19 1 20 1;
#X connect 20 0 22 0;
#X connect 21 0 43 1;
#X connect 22 0 43 2;
#X connect 23 0 20 0;
#X connect 24 0 42 0;
#X connect 25 0 26 0;
#X connect 26 0 4 1;
#X connect 27 0 38 0;
#X connect 28 0 24 1;
#X connect 29 0 41 0;
#X connect 31 0 35 0;
#X connect 33 0 44 0;
#X connect 33 1 34 0;
#X connect 34 0 28 1;
#X connect 35 0 29 0;
#X connect 35 1 36 0;
#X connect 36 0 28 1;
#X connect 37 0 44 1;
#X connect 37 1 27 0;
#X connect 38 0 25 1;
#X connect 38 1 29 1;
#X connect 41 0 5 0;
#X connect 41 1 25 0;
#X connect 41 2 1 0;
#X connect 42 0 43 0;
#X connect 42 1 21 0;
#X connect 42 2 19 0;
#X connect 43 0 18 0;
#X connect 44 0 41 0;
#X restore 387 305 pd \$0-getter;
#X text 484 56 inlet:;
#X text 507 79 - float: get xy-pos of desired control;
#X text 53 8 dkxypad: an xy-pad with multiple controls;
#X text 915 52 pdkstruct;
#X text 486 157 output: id x (0-1) y (0-1);
#X obj 62 501 route bang float;
#X obj 146 574 until;
#X obj 143 532 moses 0;
#X text 342 530 args: num of controls;
#X obj 616 656 moses 0;
#X obj 620 624 f \$1;
#X obj 627 558 loadbang;
#X obj 627 582 t b b;
#X obj 686 636 s \$0-clear;
#X obj 651 698 s \$0-add;
#X obj 552 249 route add clear set;
#N canvas 550 325 1254 1062 \$0-setter 0;
#X obj 85 12 inlet;
#X obj 107 96 min, f 13;
#X obj 226 210 f \$0;
#X msg 226 234 traverse pd-\$1-pad;
#X obj 228 327 pointer;
#X obj 87 569 ==;
#X obj 30 241 + 1;
#X obj 19 539 t b f;
#X msg 17 583 next;
#X obj 198 43 r \$0-num;
#X obj 30 265 t f f;
#X obj 90 298 > 0;
#X obj 28 316 spigot;
#X obj 28 340 t f b;
#X msg 75 403 0;
#X obj 22 428 f;
#X obj 28 364 until;
#X obj 22 452 t f f;
#X obj 91 451 + 1;
#X obj 93 39 list split 1;
#X obj 239 430 list;
#X obj 239 469 unpack f f;
#X obj 225 710 set \$0-tplate x0 y0;
#X obj 238 367 spigot 0;
#X obj 238 391 t b p, f 20;
#X obj 229 574 * 244;
#X obj 291 568 t b f;
#X msg 291 592 1;
#X obj 291 616 -;
#X obj 353 587 clip 0 1;
#X obj 291 640 * 244;
#X obj 100 151 t f f b, f 30;
#X obj 139 226 -;
#X obj 198 67 t f f;
#X obj 231 123 - 1;
#X obj 139 250 abs;
#X connect 0 0 19 0;
#X connect 1 0 31 0;
#X connect 2 0 3 0;
#X connect 3 0 4 0;
#X connect 4 0 23 0;
#X connect 5 0 23 1;
#X connect 6 0 10 0;
#X connect 7 0 8 0;
#X connect 7 1 5 0;
#X connect 8 0 4 0;
#X connect 9 0 33 0;
#X connect 10 0 12 0;
#X connect 10 1 11 0;
#X connect 11 0 12 1;
#X connect 12 0 13 0;
#X connect 13 0 16 0;
#X connect 13 1 14 0;
#X connect 14 0 15 1;
#X connect 15 0 17 0;
#X connect 16 0 15 0;
#X connect 17 0 7 0;
#X connect 17 1 18 0;
#X connect 18 0 15 1;
#X connect 19 0 1 0;
#X connect 19 1 20 1;
#X connect 20 0 21 0;
#X connect 21 0 25 0;
#X connect 21 1 26 0;
#X connect 23 0 24 0;
#X connect 24 0 20 0;
#X connect 24 1 22 2;
#X connect 25 0 22 0;
#X connect 26 0 27 0;
#X connect 26 1 29 0;
#X connect 27 0 28 0;
#X connect 28 0 30 0;
#X connect 29 0 28 1;
#X connect 30 0 22 1;
#X connect 31 0 6 0;
#X connect 31 1 32 0;
#X connect 31 2 2 0;
#X connect 32 0 35 0;
#X connect 33 0 1 1;
#X connect 33 1 34 0;
#X connect 34 0 32 1;
#X connect 35 0 5 1;
#X restore 631 316 pd \$0-setter;
#X obj 194 749 * 27;
#X obj 393 189 route float bang;
#X text 507 116 - add (f - num to add) \, clear;
#X text 505 96 - bang: dump all;
#X text 510 136 - set (f f f - id x y);
#X text 46 28 (inspired by chr15m's s-controlsurface);
#X connect 1 0 42 0;
#X connect 2 0 3 0;
#X connect 3 0 4 0;
#X connect 5 0 11 0;
#X connect 6 0 8 0;
#X connect 7 0 6 1;
#X connect 7 0 20 0;
#X connect 8 0 9 0;
#X connect 8 1 41 0;
#X connect 8 2 7 0;
#X connect 9 0 0 0;
#X connect 10 0 29 0;
#X connect 11 0 12 0;
#X connect 12 0 6 1;
#X connect 12 1 20 0;
#X connect 23 0 13 0;
#X connect 29 0 6 0;
#X connect 29 1 31 0;
#X connect 30 0 6 0;
#X connect 31 1 30 0;
#X connect 33 1 38 0;
#X connect 34 0 33 0;
#X connect 35 0 36 0;
#X connect 36 0 34 0;
#X connect 36 1 37 0;
#X connect 39 0 14 0;
#X connect 39 1 15 0;
#X connect 39 2 40 0;
#X connect 41 0 9 1;
#X connect 42 0 23 0;
#X connect 42 1 23 1;
#X connect 42 2 39 0;
#X coords 0 -1 1 1 270 290 1 50 50;
