#N struct 1074-tplate float x0 float y0 float id float c;
#N struct 1064-tplate float x0 float y0 float id float c;
#N canvas 660 262 1062 872 12;
#N canvas 1314 456 748 715 \$0-template 0;
#X obj 54 213 inlet;
#X obj 54 237 t l b;
#X obj 234 340 f \$0;
#X msg 234 364 traverse pd-\$1-pad \, bang;
#X obj 234 388 pointer;
#X msg 56 425 122 122 \$1 \$2;
#X obj 56 449 append \$0-tplate x0 y0 id c;
#X obj 15 50 struct \$0-tplate float x0 float y0 float id float c;
#X obj 20 92 filledpolygon c 0 3 x0(0:244)(0:244) y0(0:244)(0:244)
x0(0:244)(16:260) y0(0:244)(0:244) x0(0:244)(16:260) y0(0:244)(16:260)
x0(0:244)(0:244) y0(0:244)(16:260);
#X connect 0 0 1 0;
#X connect 1 0 5 0;
#X connect 1 1 2 0;
#X connect 2 0 3 0;
#X connect 3 0 4 0;
#X connect 4 0 6 4;
#X connect 5 0 6 0;
#X restore 172 806 pd \$0-template;
#X obj 419 122 inlet;
#X obj 87 353 r \$0-clear;
#X obj 87 377 f \$0;
#X msg 87 401 \; pd-\$1-pad clear;
#X obj 200 456 loadbang;
#X obj 253 479 r \$0-clear;
#X obj 166 597 f;
#X obj 243 595 + 1;
#X obj 170 643 t f f f;
#X obj 168 763 pack f f;
#X obj 99 521 r \$0-add;
#X msg 99 545 bang;
#X msg 253 503 0;
#X obj 253 527 t f f;
#X obj 435 380 outlet;
#X obj 419 146 route float;
#X obj 469 218 s \$0-add;
#X obj 517 248 s \$0-clear;
#X obj 469 194 route add clear;
#X obj 214 55 bng 15 250 50 0 \$0-add empty add 17 7 0 14 -262144 -1
-1;
#X obj 260 55 bng 15 250 50 0 \$0-clear empty clear 17 7 0 14 -262144
-1 -1;
#X obj 56 76 cnv 15 260 260 empty empty empty 20 12 0 14 -261936 -66577
0;
#N canvas 1116 326 834 608 \$0-pad 0;
#X scalar 1074-tplate 80 122 0 0 \;;
#X scalar 1064-tplate 121 118 2 32 \;;
#X scalar 1064-tplate 138 48 1 16 \;;
#X scalar 1064-tplate 71 26 0 0 \;;
#X coords 0 0 260 260 260 260 2 0 0;
#X restore 56 76 pd \$0-pad;
#X obj 258 637 s \$0-num;
#X text 916 35 derek kwan;
#X text 919 75 gpl v 3 2018;
#X text 51 28 (slightly tweaked from chr15m's s-controlsurface);
#X obj 232 713 * 25;
#N canvas 563 233 976 881 \$0-getter 0;
#X obj 85 39 inlet;
#X obj 99 91 min, f 13;
#X obj 226 210 f \$0;
#X msg 226 234 traverse pd-\$1-pad;
#X obj 228 327 pointer;
#X obj 100 151 t f f b;
#X obj 157 503 ==;
#X obj 100 175 + 1;
#X obj 89 473 t b f;
#X obj 228 415 spigot;
#X msg 87 517 next;
#X obj 228 439 get \$0-tplate x0 y0 id c;
#X obj 228 501 pack f f;
#X obj 190 60 r \$0-num;
#X obj 100 199 t f f;
#X obj 160 232 > 0;
#X obj 98 250 spigot;
#X obj 98 274 t f b;
#X msg 145 337 0;
#X obj 92 362 f;
#X obj 98 298 until;
#X obj 92 386 t f f;
#X obj 161 385 + 1;
#X obj 228 525 outlet;
#X connect 0 0 1 0;
#X connect 1 0 5 0;
#X connect 2 0 3 0;
#X connect 3 0 4 0;
#X connect 4 0 9 0;
#X connect 5 0 7 0;
#X connect 5 1 6 1;
#X connect 5 2 2 0;
#X connect 6 0 9 1;
#X connect 7 0 14 0;
#X connect 8 0 10 0;
#X connect 8 1 6 0;
#X connect 9 0 11 0;
#X connect 10 0 4 0;
#X connect 11 0 12 0;
#X connect 11 1 12 1;
#X connect 12 0 23 0;
#X connect 13 0 1 1;
#X connect 14 0 16 0;
#X connect 14 1 15 0;
#X connect 15 0 16 1;
#X connect 16 0 17 0;
#X connect 17 0 20 0;
#X connect 17 1 18 0;
#X connect 18 0 19 1;
#X connect 19 0 21 0;
#X connect 20 0 19 0;
#X connect 21 0 8 0;
#X connect 21 1 22 0;
#X connect 22 0 19 1;
#X restore 437 323 pd \$0-getter;
#X text 484 76 inlet:;
#X text 507 99 - float: get xy-pos of desired control;
#X text 508 118 - add \, clear;
#X text 53 8 dkxypad: an xy-pad with multiple controls;
#X text 915 52 pdkstruct;
#X connect 1 0 16 0;
#X connect 2 0 3 0;
#X connect 3 0 4 0;
#X connect 5 0 13 0;
#X connect 6 0 13 0;
#X connect 7 0 9 0;
#X connect 8 0 7 1;
#X connect 8 0 24 0;
#X connect 9 0 10 0;
#X connect 9 1 28 0;
#X connect 9 2 8 0;
#X connect 10 0 0 0;
#X connect 11 0 12 0;
#X connect 12 0 7 0;
#X connect 13 0 14 0;
#X connect 14 0 7 1;
#X connect 14 1 24 0;
#X connect 16 0 29 0;
#X connect 16 1 19 0;
#X connect 19 0 17 0;
#X connect 19 1 18 0;
#X connect 28 0 10 1;
#X connect 29 0 15 0;
#X coords 0 -1 1 1 270 290 1 50 50;
