#N struct 1071-mystruct float x float y float xsize float ysize float
color;
#N canvas 836 247 904 388 12;
#N canvas 201 224 479 332 \$0-grid 0;
#X scalar 1071-mystruct 0 0 6.25 6.25 888 \;;
#X scalar 1071-mystruct 0 6.25 6.25 6.25 888 \;;
#X scalar 1071-mystruct 0 12.5 6.25 6.25 888 \;;
#X scalar 1071-mystruct 0 18.75 6.25 6.25 888 \;;
#X scalar 1071-mystruct 0 25 6.25 6.25 888 \;;
#X scalar 1071-mystruct 0 31.25 6.25 6.25 888 \;;
#X scalar 1071-mystruct 0 37.5 6.25 6.25 888 \;;
#X scalar 1071-mystruct 0 43.75 6.25 6.25 888 \;;
#X scalar 1071-mystruct 0 50 6.25 6.25 888 \;;
#X scalar 1071-mystruct 0 56.25 6.25 6.25 888 \;;
#X scalar 1071-mystruct 0 62.5 6.25 6.25 888 \;;
#X scalar 1071-mystruct 0 68.75 6.25 6.25 888 \;;
#X scalar 1071-mystruct 0 75 6.25 6.25 888 \;;
#X scalar 1071-mystruct 0 81.25 6.25 6.25 888 \;;
#X scalar 1071-mystruct 0 87.5 6.25 6.25 888 \;;
#X scalar 1071-mystruct 0 93.75 6.25 6.25 888 \;;
#X scalar 1071-mystruct 6.25 0 6.25 6.25 888 \;;
#X scalar 1071-mystruct 6.25 6.25 6.25 6.25 888 \;;
#X scalar 1071-mystruct 6.25 12.5 6.25 6.25 888 \;;
#X scalar 1071-mystruct 6.25 18.75 6.25 6.25 888 \;;
#X scalar 1071-mystruct 6.25 25 6.25 6.25 888 \;;
#X scalar 1071-mystruct 6.25 31.25 6.25 6.25 888 \;;
#X scalar 1071-mystruct 6.25 37.5 6.25 6.25 888 \;;
#X scalar 1071-mystruct 6.25 43.75 6.25 6.25 888 \;;
#X scalar 1071-mystruct 6.25 50 6.25 6.25 888 \;;
#X scalar 1071-mystruct 6.25 56.25 6.25 6.25 888 \;;
#X scalar 1071-mystruct 6.25 62.5 6.25 6.25 888 \;;
#X scalar 1071-mystruct 6.25 68.75 6.25 6.25 888 \;;
#X scalar 1071-mystruct 6.25 75 6.25 6.25 888 \;;
#X scalar 1071-mystruct 6.25 81.25 6.25 6.25 888 \;;
#X scalar 1071-mystruct 6.25 87.5 6.25 6.25 888 \;;
#X scalar 1071-mystruct 6.25 93.75 6.25 6.25 888 \;;
#X scalar 1071-mystruct 12.5 0 6.25 6.25 888 \;;
#X scalar 1071-mystruct 12.5 6.25 6.25 6.25 888 \;;
#X scalar 1071-mystruct 12.5 12.5 6.25 6.25 888 \;;
#X scalar 1071-mystruct 12.5 18.75 6.25 6.25 888 \;;
#X scalar 1071-mystruct 12.5 25 6.25 6.25 85 \;;
#X scalar 1071-mystruct 12.5 31.25 6.25 6.25 888 \;;
#X scalar 1071-mystruct 12.5 37.5 6.25 6.25 888 \;;
#X scalar 1071-mystruct 12.5 43.75 6.25 6.25 888 \;;
#X scalar 1071-mystruct 12.5 50 6.25 6.25 888 \;;
#X scalar 1071-mystruct 12.5 56.25 6.25 6.25 888 \;;
#X scalar 1071-mystruct 12.5 62.5 6.25 6.25 888 \;;
#X scalar 1071-mystruct 12.5 68.75 6.25 6.25 888 \;;
#X scalar 1071-mystruct 12.5 75 6.25 6.25 888 \;;
#X scalar 1071-mystruct 12.5 81.25 6.25 6.25 888 \;;
#X scalar 1071-mystruct 12.5 87.5 6.25 6.25 888 \;;
#X scalar 1071-mystruct 12.5 93.75 6.25 6.25 888 \;;
#X scalar 1071-mystruct 18.75 0 6.25 6.25 888 \;;
#X scalar 1071-mystruct 18.75 6.25 6.25 6.25 888 \;;
#X scalar 1071-mystruct 18.75 12.5 6.25 6.25 888 \;;
#X scalar 1071-mystruct 18.75 18.75 6.25 6.25 888 \;;
#X scalar 1071-mystruct 18.75 25 6.25 6.25 85 \;;
#X scalar 1071-mystruct 18.75 31.25 6.25 6.25 888 \;;
#X scalar 1071-mystruct 18.75 37.5 6.25 6.25 85 \;;
#X scalar 1071-mystruct 18.75 43.75 6.25 6.25 888 \;;
#X scalar 1071-mystruct 18.75 50 6.25 6.25 888 \;;
#X scalar 1071-mystruct 18.75 56.25 6.25 6.25 888 \;;
#X scalar 1071-mystruct 18.75 62.5 6.25 6.25 888 \;;
#X scalar 1071-mystruct 18.75 68.75 6.25 6.25 888 \;;
#X scalar 1071-mystruct 18.75 75 6.25 6.25 888 \;;
#X scalar 1071-mystruct 18.75 81.25 6.25 6.25 888 \;;
#X scalar 1071-mystruct 18.75 87.5 6.25 6.25 888 \;;
#X scalar 1071-mystruct 18.75 93.75 6.25 6.25 85 \;;
#X scalar 1071-mystruct 25 0 6.25 6.25 888 \;;
#X scalar 1071-mystruct 25 6.25 6.25 6.25 888 \;;
#X scalar 1071-mystruct 25 12.5 6.25 6.25 888 \;;
#X scalar 1071-mystruct 25 18.75 6.25 6.25 85 \;;
#X scalar 1071-mystruct 25 25 6.25 6.25 888 \;;
#X scalar 1071-mystruct 25 31.25 6.25 6.25 888 \;;
#X scalar 1071-mystruct 25 37.5 6.25 6.25 888 \;;
#X scalar 1071-mystruct 25 43.75 6.25 6.25 888 \;;
#X scalar 1071-mystruct 25 50 6.25 6.25 888 \;;
#X scalar 1071-mystruct 25 56.25 6.25 6.25 888 \;;
#X scalar 1071-mystruct 25 62.5 6.25 6.25 888 \;;
#X scalar 1071-mystruct 25 68.75 6.25 6.25 888 \;;
#X scalar 1071-mystruct 25 75 6.25 6.25 888 \;;
#X scalar 1071-mystruct 25 81.25 6.25 6.25 888 \;;
#X scalar 1071-mystruct 25 87.5 6.25 6.25 888 \;;
#X scalar 1071-mystruct 25 93.75 6.25 6.25 888 \;;
#X scalar 1071-mystruct 31.25 0 6.25 6.25 888 \;;
#X scalar 1071-mystruct 31.25 6.25 6.25 6.25 888 \;;
#X scalar 1071-mystruct 31.25 12.5 6.25 6.25 888 \;;
#X scalar 1071-mystruct 31.25 18.75 6.25 6.25 888 \;;
#X scalar 1071-mystruct 31.25 25 6.25 6.25 888 \;;
#X scalar 1071-mystruct 31.25 31.25 6.25 6.25 888 \;;
#X scalar 1071-mystruct 31.25 37.5 6.25 6.25 888 \;;
#X scalar 1071-mystruct 31.25 43.75 6.25 6.25 888 \;;
#X scalar 1071-mystruct 31.25 50 6.25 6.25 888 \;;
#X scalar 1071-mystruct 31.25 56.25 6.25 6.25 888 \;;
#X scalar 1071-mystruct 31.25 62.5 6.25 6.25 888 \;;
#X scalar 1071-mystruct 31.25 68.75 6.25 6.25 888 \;;
#X scalar 1071-mystruct 31.25 75 6.25 6.25 888 \;;
#X scalar 1071-mystruct 31.25 81.25 6.25 6.25 888 \;;
#X scalar 1071-mystruct 31.25 87.5 6.25 6.25 888 \;;
#X scalar 1071-mystruct 31.25 93.75 6.25 6.25 888 \;;
#X scalar 1071-mystruct 37.5 0 6.25 6.25 888 \;;
#X scalar 1071-mystruct 37.5 6.25 6.25 6.25 888 \;;
#X scalar 1071-mystruct 37.5 12.5 6.25 6.25 888 \;;
#X scalar 1071-mystruct 37.5 18.75 6.25 6.25 85 \;;
#X scalar 1071-mystruct 37.5 25 6.25 6.25 888 \;;
#X scalar 1071-mystruct 37.5 31.25 6.25 6.25 888 \;;
#X scalar 1071-mystruct 37.5 37.5 6.25 6.25 888 \;;
#X scalar 1071-mystruct 37.5 43.75 6.25 6.25 888 \;;
#X scalar 1071-mystruct 37.5 50 6.25 6.25 888 \;;
#X scalar 1071-mystruct 37.5 56.25 6.25 6.25 888 \;;
#X scalar 1071-mystruct 37.5 62.5 6.25 6.25 888 \;;
#X scalar 1071-mystruct 37.5 68.75 6.25 6.25 888 \;;
#X scalar 1071-mystruct 37.5 75 6.25 6.25 888 \;;
#X scalar 1071-mystruct 37.5 81.25 6.25 6.25 888 \;;
#X scalar 1071-mystruct 37.5 87.5 6.25 6.25 888 \;;
#X scalar 1071-mystruct 37.5 93.75 6.25 6.25 888 \;;
#X scalar 1071-mystruct 43.75 0 6.25 6.25 888 \;;
#X scalar 1071-mystruct 43.75 6.25 6.25 6.25 888 \;;
#X scalar 1071-mystruct 43.75 12.5 6.25 6.25 888 \;;
#X scalar 1071-mystruct 43.75 18.75 6.25 6.25 888 \;;
#X scalar 1071-mystruct 43.75 25 6.25 6.25 888 \;;
#X scalar 1071-mystruct 43.75 31.25 6.25 6.25 888 \;;
#X scalar 1071-mystruct 43.75 37.5 6.25 6.25 888 \;;
#X scalar 1071-mystruct 43.75 43.75 6.25 6.25 888 \;;
#X scalar 1071-mystruct 43.75 50 6.25 6.25 888 \;;
#X scalar 1071-mystruct 43.75 56.25 6.25 6.25 888 \;;
#X scalar 1071-mystruct 43.75 62.5 6.25 6.25 888 \;;
#X scalar 1071-mystruct 43.75 68.75 6.25 6.25 888 \;;
#X scalar 1071-mystruct 43.75 75 6.25 6.25 888 \;;
#X scalar 1071-mystruct 43.75 81.25 6.25 6.25 85 \;;
#X scalar 1071-mystruct 43.75 87.5 6.25 6.25 888 \;;
#X scalar 1071-mystruct 43.75 93.75 6.25 6.25 888 \;;
#X scalar 1071-mystruct 50 0 6.25 6.25 888 \;;
#X scalar 1071-mystruct 50 6.25 6.25 6.25 888 \;;
#X scalar 1071-mystruct 50 12.5 6.25 6.25 888 \;;
#X scalar 1071-mystruct 50 18.75 6.25 6.25 888 \;;
#X scalar 1071-mystruct 50 25 6.25 6.25 888 \;;
#X scalar 1071-mystruct 50 31.25 6.25 6.25 888 \;;
#X scalar 1071-mystruct 50 37.5 6.25 6.25 888 \;;
#X scalar 1071-mystruct 50 43.75 6.25 6.25 888 \;;
#X scalar 1071-mystruct 50 50 6.25 6.25 888 \;;
#X scalar 1071-mystruct 50 56.25 6.25 6.25 888 \;;
#X scalar 1071-mystruct 50 62.5 6.25 6.25 888 \;;
#X scalar 1071-mystruct 50 68.75 6.25 6.25 888 \;;
#X scalar 1071-mystruct 50 75 6.25 6.25 888 \;;
#X scalar 1071-mystruct 50 81.25 6.25 6.25 888 \;;
#X scalar 1071-mystruct 50 87.5 6.25 6.25 888 \;;
#X scalar 1071-mystruct 50 93.75 6.25 6.25 888 \;;
#X scalar 1071-mystruct 56.25 0 6.25 6.25 888 \;;
#X scalar 1071-mystruct 56.25 6.25 6.25 6.25 888 \;;
#X scalar 1071-mystruct 56.25 12.5 6.25 6.25 888 \;;
#X scalar 1071-mystruct 56.25 18.75 6.25 6.25 888 \;;
#X scalar 1071-mystruct 56.25 25 6.25 6.25 888 \;;
#X scalar 1071-mystruct 56.25 31.25 6.25 6.25 85 \;;
#X scalar 1071-mystruct 56.25 37.5 6.25 6.25 85 \;;
#X scalar 1071-mystruct 56.25 43.75 6.25 6.25 888 \;;
#X scalar 1071-mystruct 56.25 50 6.25 6.25 888 \;;
#X scalar 1071-mystruct 56.25 56.25 6.25 6.25 888 \;;
#X scalar 1071-mystruct 56.25 62.5 6.25 6.25 888 \;;
#X scalar 1071-mystruct 56.25 68.75 6.25 6.25 888 \;;
#X scalar 1071-mystruct 56.25 75 6.25 6.25 888 \;;
#X scalar 1071-mystruct 56.25 81.25 6.25 6.25 888 \;;
#X scalar 1071-mystruct 56.25 87.5 6.25 6.25 888 \;;
#X scalar 1071-mystruct 56.25 93.75 6.25 6.25 888 \;;
#X scalar 1071-mystruct 62.5 0 6.25 6.25 888 \;;
#X scalar 1071-mystruct 62.5 6.25 6.25 6.25 888 \;;
#X scalar 1071-mystruct 62.5 12.5 6.25 6.25 888 \;;
#X scalar 1071-mystruct 62.5 18.75 6.25 6.25 888 \;;
#X scalar 1071-mystruct 62.5 25 6.25 6.25 888 \;;
#X scalar 1071-mystruct 62.5 31.25 6.25 6.25 888 \;;
#X scalar 1071-mystruct 62.5 37.5 6.25 6.25 888 \;;
#X scalar 1071-mystruct 62.5 43.75 6.25 6.25 888 \;;
#X scalar 1071-mystruct 62.5 50 6.25 6.25 888 \;;
#X scalar 1071-mystruct 62.5 56.25 6.25 6.25 888 \;;
#X scalar 1071-mystruct 62.5 62.5 6.25 6.25 888 \;;
#X scalar 1071-mystruct 62.5 68.75 6.25 6.25 888 \;;
#X scalar 1071-mystruct 62.5 75 6.25 6.25 888 \;;
#X scalar 1071-mystruct 62.5 81.25 6.25 6.25 888 \;;
#X scalar 1071-mystruct 62.5 87.5 6.25 6.25 888 \;;
#X scalar 1071-mystruct 62.5 93.75 6.25 6.25 888 \;;
#X scalar 1071-mystruct 68.75 0 6.25 6.25 888 \;;
#X scalar 1071-mystruct 68.75 6.25 6.25 6.25 888 \;;
#X scalar 1071-mystruct 68.75 12.5 6.25 6.25 85 \;;
#X scalar 1071-mystruct 68.75 18.75 6.25 6.25 888 \;;
#X scalar 1071-mystruct 68.75 25 6.25 6.25 888 \;;
#X scalar 1071-mystruct 68.75 31.25 6.25 6.25 888 \;;
#X scalar 1071-mystruct 68.75 37.5 6.25 6.25 888 \;;
#X scalar 1071-mystruct 68.75 43.75 6.25 6.25 888 \;;
#X scalar 1071-mystruct 68.75 50 6.25 6.25 888 \;;
#X scalar 1071-mystruct 68.75 56.25 6.25 6.25 888 \;;
#X scalar 1071-mystruct 68.75 62.5 6.25 6.25 888 \;;
#X scalar 1071-mystruct 68.75 68.75 6.25 6.25 888 \;;
#X scalar 1071-mystruct 68.75 75 6.25 6.25 888 \;;
#X scalar 1071-mystruct 68.75 81.25 6.25 6.25 888 \;;
#X scalar 1071-mystruct 68.75 87.5 6.25 6.25 888 \;;
#X scalar 1071-mystruct 68.75 93.75 6.25 6.25 888 \;;
#X scalar 1071-mystruct 75 0 6.25 6.25 888 \;;
#X scalar 1071-mystruct 75 6.25 6.25 6.25 888 \;;
#X scalar 1071-mystruct 75 12.5 6.25 6.25 888 \;;
#X scalar 1071-mystruct 75 18.75 6.25 6.25 888 \;;
#X scalar 1071-mystruct 75 25 6.25 6.25 888 \;;
#X scalar 1071-mystruct 75 31.25 6.25 6.25 888 \;;
#X scalar 1071-mystruct 75 37.5 6.25 6.25 888 \;;
#X scalar 1071-mystruct 75 43.75 6.25 6.25 888 \;;
#X scalar 1071-mystruct 75 50 6.25 6.25 888 \;;
#X scalar 1071-mystruct 75 56.25 6.25 6.25 888 \;;
#X scalar 1071-mystruct 75 62.5 6.25 6.25 888 \;;
#X scalar 1071-mystruct 75 68.75 6.25 6.25 888 \;;
#X scalar 1071-mystruct 75 75 6.25 6.25 888 \;;
#X scalar 1071-mystruct 75 81.25 6.25 6.25 888 \;;
#X scalar 1071-mystruct 75 87.5 6.25 6.25 888 \;;
#X scalar 1071-mystruct 75 93.75 6.25 6.25 888 \;;
#X scalar 1071-mystruct 81.25 0 6.25 6.25 888 \;;
#X scalar 1071-mystruct 81.25 6.25 6.25 6.25 888 \;;
#X scalar 1071-mystruct 81.25 12.5 6.25 6.25 888 \;;
#X scalar 1071-mystruct 81.25 18.75 6.25 6.25 888 \;;
#X scalar 1071-mystruct 81.25 25 6.25 6.25 888 \;;
#X scalar 1071-mystruct 81.25 31.25 6.25 6.25 888 \;;
#X scalar 1071-mystruct 81.25 37.5 6.25 6.25 888 \;;
#X scalar 1071-mystruct 81.25 43.75 6.25 6.25 888 \;;
#X scalar 1071-mystruct 81.25 50 6.25 6.25 888 \;;
#X scalar 1071-mystruct 81.25 56.25 6.25 6.25 888 \;;
#X scalar 1071-mystruct 81.25 62.5 6.25 6.25 888 \;;
#X scalar 1071-mystruct 81.25 68.75 6.25 6.25 888 \;;
#X scalar 1071-mystruct 81.25 75 6.25 6.25 888 \;;
#X scalar 1071-mystruct 81.25 81.25 6.25 6.25 888 \;;
#X scalar 1071-mystruct 81.25 87.5 6.25 6.25 888 \;;
#X scalar 1071-mystruct 81.25 93.75 6.25 6.25 888 \;;
#X scalar 1071-mystruct 87.5 0 6.25 6.25 888 \;;
#X scalar 1071-mystruct 87.5 6.25 6.25 6.25 888 \;;
#X scalar 1071-mystruct 87.5 12.5 6.25 6.25 888 \;;
#X scalar 1071-mystruct 87.5 18.75 6.25 6.25 888 \;;
#X scalar 1071-mystruct 87.5 25 6.25 6.25 888 \;;
#X scalar 1071-mystruct 87.5 31.25 6.25 6.25 888 \;;
#X scalar 1071-mystruct 87.5 37.5 6.25 6.25 888 \;;
#X scalar 1071-mystruct 87.5 43.75 6.25 6.25 888 \;;
#X scalar 1071-mystruct 87.5 50 6.25 6.25 888 \;;
#X scalar 1071-mystruct 87.5 56.25 6.25 6.25 888 \;;
#X scalar 1071-mystruct 87.5 62.5 6.25 6.25 888 \;;
#X scalar 1071-mystruct 87.5 68.75 6.25 6.25 888 \;;
#X scalar 1071-mystruct 87.5 75 6.25 6.25 888 \;;
#X scalar 1071-mystruct 87.5 81.25 6.25 6.25 888 \;;
#X scalar 1071-mystruct 87.5 87.5 6.25 6.25 888 \;;
#X scalar 1071-mystruct 87.5 93.75 6.25 6.25 888 \;;
#X scalar 1071-mystruct 93.75 0 6.25 6.25 888 \;;
#X scalar 1071-mystruct 93.75 6.25 6.25 6.25 888 \;;
#X scalar 1071-mystruct 93.75 12.5 6.25 6.25 888 \;;
#X scalar 1071-mystruct 93.75 18.75 6.25 6.25 888 \;;
#X scalar 1071-mystruct 93.75 25 6.25 6.25 888 \;;
#X scalar 1071-mystruct 93.75 31.25 6.25 6.25 888 \;;
#X scalar 1071-mystruct 93.75 37.5 6.25 6.25 888 \;;
#X scalar 1071-mystruct 93.75 43.75 6.25 6.25 888 \;;
#X scalar 1071-mystruct 93.75 50 6.25 6.25 888 \;;
#X scalar 1071-mystruct 93.75 56.25 6.25 6.25 888 \;;
#X scalar 1071-mystruct 93.75 62.5 6.25 6.25 888 \;;
#X scalar 1071-mystruct 93.75 68.75 6.25 6.25 888 \;;
#X scalar 1071-mystruct 93.75 75 6.25 6.25 888 \;;
#X scalar 1071-mystruct 93.75 81.25 6.25 6.25 888 \;;
#X scalar 1071-mystruct 93.75 87.5 6.25 6.25 888 \;;
#X scalar 1071-mystruct 93.75 93.75 6.25 6.25 888 \;;
#X coords 0 0 100 100 300 300 1 0 0;
#X restore 14 35 pd \$0-grid;
#N canvas 480 536 1101 740 \$0-grid_init 0;
#X msg 690 63 bang;
#X obj 742 247 pointer;
#X obj 96 268 pdkvabs/dkfor 10, f 45;
#X obj 103 388 pdkvabs/dkfor 10, f 45;
#X obj 693 23 loadbang;
#X obj 690 88 f \$0;
#X obj 683 125 t b f f;
#X msg 811 154 \; pd-\$1-grid clear;
#X msg 730 204 traverse pd-\$1-grid \, bang;
#X obj 94 299 t b f, f 12;
#X text 592 431 want order by column (easier for dumping);
#X text 30 337 iterate y;
#X text 31 196 iterate x;
#X obj 263 93 f \$1;
#X text 411 118 xdim;
#X obj 519 161 f \$2;
#X text 560 165 ydim;
#X obj 265 147 t b f, f 19;
#X obj 265 197 /;
#X text 305 202 size calc;
#X obj 225 487 * 10;
#X obj 147 491 * 10;
#X obj 263 118 max 1;
#X obj 519 186 max 1;
#X obj 65 52 t b b b b, f 46;
#X text 476 615 donecanvasdialog <x-units> <y-units> <gop>;
#X text 481 638 <x-from> <y-from> <x-to> <y-to> <x-size> <y-size> <x-margin>
;
#X text 479 662 <y-margin>;
#X msg 265 172 100;
#X obj 177 230 v \$0-grid_xsize;
#X obj 108 629 append \$0-mystruct x y xsize ysize color;
#X obj 161 547 pack f f 10 10 888, f 37;
#X obj 533 246 t b f, f 19;
#X obj 533 296 /;
#X text 573 301 size calc;
#X msg 533 271 100;
#X obj 538 346 v \$0-grid_ysize;
#X obj 241 436 v \$0-grid_ysize;
#X obj 395 437 v \$0-grid_xsize;
#X msg 161 572 \$2 \$1 \$4 \$3 \$5;
#X text 589 462 so in normalized idx: 0 0 \, 0 1 \, 0 2 \, 0 3 \, ...
;
#X connect 0 0 5 0;
#X connect 1 0 30 5;
#X connect 2 0 9 0;
#X connect 3 0 21 0;
#X connect 4 0 0 0;
#X connect 5 0 6 0;
#X connect 6 0 24 0;
#X connect 6 1 8 0;
#X connect 6 2 7 0;
#X connect 8 0 1 0;
#X connect 9 0 3 0;
#X connect 9 1 20 0;
#X connect 13 0 22 0;
#X connect 15 0 23 0;
#X connect 17 0 28 0;
#X connect 17 1 18 1;
#X connect 17 1 2 1;
#X connect 18 0 29 0;
#X connect 20 0 31 1;
#X connect 21 0 31 0;
#X connect 22 0 17 0;
#X connect 23 0 32 0;
#X connect 24 0 2 0;
#X connect 24 1 37 0;
#X connect 24 1 38 0;
#X connect 24 2 13 0;
#X connect 24 3 15 0;
#X connect 28 0 18 0;
#X connect 31 0 39 0;
#X connect 32 0 35 0;
#X connect 32 1 33 1;
#X connect 32 1 3 1;
#X connect 33 0 36 0;
#X connect 35 0 33 0;
#X connect 37 0 21 1;
#X connect 37 0 31 2;
#X connect 38 0 20 1;
#X connect 38 0 31 3;
#X connect 39 0 30 0;
#X restore 530 176 pd \$0-grid_init;
#N canvas 408 450 933 749 \$0-grid_get_set 0;
#X obj 695 138 get \$0-mystruct color;
#X obj 705 234 set \$0-mystruct color;
#X msg 733 201 888;
#X obj 695 171 sel 888 85;
#X msg 680 203 85;
#X obj 536 144 t p p p;
#X obj 591 274 sel 888 85;
#X msg 591 299 0;
#X msg 637 301 1;
#X obj 525 356 pack f f f;
#X obj 523 429 outlet;
#X obj 479 283 / 10;
#X obj 527 277 / 10;
#X obj 499 103 unpack s p f;
#X obj 221 72 route change;
#X text 115 262 prevent size change;
#X text 686 405 get/set;
#X obj 69 480 tgl 15 0 empty empty empty 17 7 0 10 -262144 -1 -1 0
1;
#X obj 240 13 struct \$0-mystruct float x float y float xsize float
ysize float color;
#X obj 349 186 get \$0-mystruct x y xsize ysize color;
#X obj 221 97 t b b p;
#X obj 75 207 set \$0-mystruct xsize ysize;
#X obj 41 145 v \$0-grid_xsize;
#X obj 179 152 v \$0-grid_ysize;
#X obj 38 537 filledpolygon color 0 1 0 0 xsize 0 xsize ysize 0 ysize
;
#X connect 0 0 3 0;
#X connect 2 0 1 0;
#X connect 3 0 4 0;
#X connect 3 1 2 0;
#X connect 4 0 1 0;
#X connect 5 0 19 0;
#X connect 5 1 0 0;
#X connect 5 2 1 1;
#X connect 6 0 7 0;
#X connect 6 1 8 0;
#X connect 7 0 9 2;
#X connect 8 0 9 2;
#X connect 9 0 10 0;
#X connect 11 0 9 0;
#X connect 12 0 9 1;
#X connect 13 1 5 0;
#X connect 14 0 20 0;
#X connect 14 1 13 0;
#X connect 17 0 24 0;
#X connect 18 0 14 0;
#X connect 19 0 11 0;
#X connect 19 1 12 0;
#X connect 19 2 11 1;
#X connect 19 3 12 1;
#X connect 19 4 6 0;
#X connect 20 0 22 0;
#X connect 20 1 23 0;
#X connect 20 2 21 2;
#X connect 22 0 21 0;
#X connect 23 0 21 1;
#X restore 339 176 pd \$0-grid_get_set;
#N canvas 553 302 919 744 \$0-grid_get_col 0;
#X obj 411 120 f \$0;
#X obj 316 196 pointer;
#X msg 314 159 next;
#X obj 319 125 until;
#X obj 320 626 list store, f 60;
#X obj 337 87 t b b f b, f 62;
#X obj 451 585 sel 0;
#X obj 318 512 spigot;
#X obj 311 351 t b f;
#X obj 323 545 f, f 43;
#X msg 319 577 append \$1;
#X msg 409 151 traverse pd-\$1-grid;
#X obj 719 311 sel 888 85;
#X msg 719 355 0;
#X msg 761 347 1;
#X obj 370 440 >= 0;
#X obj 455 411 < 1;
#X obj 361 390 t f f;
#X obj 465 490 &&;
#X obj 449 448 t f f;
#X obj 492 371 + 1;
#X obj 336 30 inlet;
#X text 398 27 col number;
#X obj 320 651 outlet;
#X obj 311 316 /;
#X text 10 283 (must divide to get proper idx);
#X obj 311 224 get \$0-mystruct x xsize color, f 51;
#X text 20 259 scan until proper col;
#X text 6 316 scan by ROW since we iterate through;
#X text 10 340 col vals (y) first);
#X connect 0 0 11 0;
#X connect 1 0 26 0;
#X connect 1 1 3 1;
#X connect 2 0 1 0;
#X connect 3 0 2 0;
#X connect 4 0 23 0;
#X connect 5 0 3 0;
#X connect 5 1 0 0;
#X connect 5 2 15 1;
#X connect 5 2 20 0;
#X connect 5 3 4 1;
#X connect 6 0 3 1;
#X connect 6 0 4 0;
#X connect 7 0 9 0;
#X connect 8 0 7 0;
#X connect 8 1 17 0;
#X connect 9 0 10 0;
#X connect 10 0 4 0;
#X connect 11 0 1 0;
#X connect 12 0 13 0;
#X connect 12 1 14 0;
#X connect 13 0 9 1;
#X connect 14 0 9 1;
#X connect 15 0 18 0;
#X connect 16 0 19 0;
#X connect 17 0 15 0;
#X connect 17 1 16 0;
#X connect 18 0 7 1;
#X connect 19 0 6 0;
#X connect 19 1 18 1;
#X connect 20 0 16 1;
#X connect 21 0 5 0;
#X connect 24 0 8 0;
#X connect 26 0 24 0;
#X connect 26 1 24 1;
#X connect 26 2 12 0;
#X restore 534 45 pd \$0-grid_get_col;
#X obj 339 201 outlet;
#X text 408 206 row col val;
#X obj 534 70 outlet;
#X obj 528 9 inlet;
#X text 584 16 request col;
#X text 596 74 col values;
#X obj 339 27 inlet;
#N canvas 1303 252 699 676 \$0-set_val 0;
#X obj 70 29 inlet;
#X text 137 28 row col val;
#X text 323 20 (remember they are laid out reversed \,;
#X text 323 45 so all of col 0 comes first \, all of col 2..);
#X obj 70 65 unpack f f f, f 47;
#X obj 115 121 f \$2;
#X obj 70 92 t f b;
#X obj 115 146 max 1;
#X text 161 123 ydim;
#X obj 69 193 *;
#X obj 69 218 +, f 19;
#X obj 132 520 f;
#X obj 69 243 t f b, f 21;
#X obj 265 390 f \$0;
#X msg 265 415 traverse pd-\$1-grid;
#X obj 279 498 pointer;
#X obj 69 268 t b f b, f 23;
#X obj 64 354 f;
#X msg 130 309 0;
#X obj 105 353 + 1;
#X obj 63 305 until;
#X obj 68 388 t f f b;
#X msg 292 461 next;
#X obj 72 452 sel 1, f 12;
#X obj 72 427 >= 0, f 9;
#X obj 72 477 t b b, f 23;
#X obj 132 545 sel 0 1;
#X msg 132 587 888;
#X msg 183 581 85;
#X obj 149 632 set \$0-mystruct color;
#X connect 0 0 4 0;
#X connect 4 0 6 0;
#X connect 4 1 10 1;
#X connect 4 2 11 1;
#X connect 5 0 7 0;
#X connect 6 0 9 0;
#X connect 6 1 5 0;
#X connect 7 0 9 1;
#X connect 9 0 10 0;
#X connect 10 0 12 0;
#X connect 11 0 26 0;
#X connect 12 0 16 0;
#X connect 12 1 13 0;
#X connect 13 0 14 0;
#X connect 14 0 15 0;
#X connect 15 0 29 1;
#X connect 15 1 20 1;
#X connect 16 0 20 0;
#X connect 16 1 24 1;
#X connect 16 2 18 0;
#X connect 17 0 21 0;
#X connect 18 0 17 1;
#X connect 19 0 17 1;
#X connect 20 0 17 0;
#X connect 21 0 24 0;
#X connect 21 1 19 0;
#X connect 21 2 22 0;
#X connect 22 0 15 0;
#X connect 23 0 25 0;
#X connect 24 0 23 0;
#X connect 25 0 11 0;
#X connect 25 1 20 1;
#X connect 26 0 27 0;
#X connect 26 1 28 0;
#X connect 27 0 29 0;
#X connect 28 0 29 0;
#X restore 339 83 pd \$0-set_val;
#X text 358 261 args: xdim \, ydim;
#X text 361 283 inlets: (x y val) to set \, col # to dump col vals
;
#X obj 339 52 list split 3;
#X text 395 24 x y val;
#X text 732 16 derek kwan;
#X text 744 44 gpl v 3;
#X connect 2 0 4 0;
#X connect 3 0 6 0;
#X connect 7 0 3 0;
#X connect 10 0 14 0;
#X connect 14 0 11 0;
#X coords 0 -1 1 1 310 330 1 10 10;
